<svg xmlns="http://www.w3.org/2000/svg" xmlns:xlink="http://www.w3.org/1999/xlink" width="500" zoomAndPan="magnify" viewBox="0 0 375 374.999991" height="500" preserveAspectRatio="xMidYMid meet" version="1.0"><defs><g/></defs><rect x="-37.5" width="450" fill="#ffffff" y="-37.499999" height="449.999989" fill-opacity="1"/><rect x="-37.5" width="450" fill="#f1f1f1" y="-37.499999" height="449.999989" fill-opacity="1"/><g fill="#33323d" fill-opacity="1"><g transform="translate(220.902912, 225.763883)"><g><path d="M 47.234375 -41.578125 C 51.816406 -39.804688 55.4375 -37.273438 58.09375 -33.984375 C 60.757812 -30.691406 62.09375 -26.863281 62.09375 -22.5 C 62.09375 -17.40625 60.851562 -13.175781 58.375 -9.8125 C 55.894531 -6.445312 52.640625 -3.96875 48.609375 -2.375 C 44.585938 -0.789062 40.175781 0 35.375 0 L 11.53125 0 L 11.53125 -80.15625 L 32.265625 -80.15625 C 40.472656 -80.15625 46.828125 -78.472656 51.328125 -75.109375 C 55.835938 -71.753906 58.09375 -66.710938 58.09375 -59.984375 C 58.09375 -55.765625 57.148438 -52.082031 55.265625 -48.9375 C 53.378906 -45.800781 50.703125 -43.347656 47.234375 -41.578125 Z M 22.28125 -45.125 L 34.484375 -45.125 C 38.617188 -45.125 41.738281 -46.304688 43.84375 -48.671875 C 45.957031 -51.035156 47.015625 -54.066406 47.015625 -57.765625 C 47.015625 -61.828125 45.753906 -64.851562 43.234375 -66.84375 C 40.722656 -68.84375 37.210938 -69.84375 32.703125 -69.84375 L 22.28125 -69.84375 Z M 34.921875 -9.984375 C 39.578125 -9.984375 43.421875 -11.035156 46.453125 -13.140625 C 49.484375 -15.242188 51 -18.328125 51 -22.390625 C 51 -26.609375 49.351562 -29.710938 46.0625 -31.703125 C 42.78125 -33.703125 38.8125 -34.703125 34.15625 -34.703125 L 22.28125 -34.703125 L 22.28125 -9.984375 Z M 34.921875 -9.984375 "/></g></g></g><g fill="#33323d" fill-opacity="1"><g transform="translate(77.57551, 227.167142)"><g><path d="M 74.40625 -6.875 C 71.96875 -4.945312 68.140625 -3.171875 62.921875 -1.546875 C 57.710938 0.078125 52.890625 0.890625 48.453125 0.890625 C 40.097656 0.890625 32.742188 -0.828125 26.390625 -4.265625 C 20.035156 -7.703125 15.140625 -12.414062 11.703125 -18.40625 C 8.265625 -24.394531 6.546875 -31.125 6.546875 -38.59375 C 6.546875 -47.3125 8.390625 -54.867188 12.078125 -61.265625 C 15.773438 -67.660156 20.765625 -72.554688 27.046875 -75.953125 C 33.335938 -79.359375 40.21875 -81.0625 47.6875 -81.0625 C 52.195312 -81.0625 56.445312 -80.523438 60.4375 -79.453125 C 64.425781 -78.378906 68.007812 -76.957031 71.1875 -75.1875 L 67.640625 -65.3125 C 65.273438 -66.644531 62.300781 -67.804688 58.71875 -68.796875 C 55.132812 -69.796875 51.898438 -70.296875 49.015625 -70.296875 C 42.804688 -70.296875 37.316406 -69.039062 32.546875 -66.53125 C 27.773438 -64.019531 24.09375 -60.4375 21.5 -55.78125 C 18.914062 -51.125 17.625 -45.691406 17.625 -39.484375 C 17.625 -33.710938 18.914062 -28.570312 21.5 -24.0625 C 24.09375 -19.550781 27.753906 -16.054688 32.484375 -13.578125 C 37.222656 -11.109375 42.625 -9.875 48.6875 -9.875 C 51.488281 -9.875 54.21875 -10.148438 56.875 -10.703125 C 59.539062 -11.253906 61.765625 -12.046875 63.546875 -13.078125 L 63.546875 -28.9375 L 47.578125 -28.9375 L 47.578125 -39.25 L 74.40625 -39.25 Z M 74.40625 -6.875 "/></g></g></g><path stroke-linecap="butt" transform="matrix(0, -0.75, 0.75, 0, 185.409163, 276.890607)" fill="none" stroke-linejoin="miter" d="M -0.0000234433 2.001325 L 238.390617 2.001325 " stroke="#33323d" stroke-width="4" stroke-opacity="1" stroke-miterlimit="4"/></svg>